<?xml version="1.0" encoding="UTF-8"?>
<svg id="Capa_1" data-name="Capa 1" xmlns="http://www.w3.org/2000/svg" viewBox="0 0 2106.86 2837.06">
  <defs>
    <style>
      .cls-1 {
        fill: #e42528;
      }

      .cls-2 {
        fill: #232754;
      }
    </style>
  </defs>
  <g>
    <path class="cls-2" d="M100.67,1683.52h127.5l130.26,384.56,130.26-384.56h119.92v482.43h-102.69v-325.29l-113.03,325.29h-68.23l-120.61-345.28v345.28h-103.38v-482.43Z"/>
    <path class="cls-2" d="M678.18,1886.14c0-155.76,100.62-218.47,217.09-218.47s216.4,62.72,216.4,218.47v79.94c0,155.76-100.62,218.47-216.4,218.47s-217.09-62.72-217.09-218.47v-79.94ZM1004.16,1976.42v-100.62c0-90.29-57.89-113.03-108.89-113.03s-109.58,22.74-109.58,113.03v100.62c0,90.29,57.89,113.71,109.58,113.71s108.89-23.43,108.89-113.71Z"/>
    <path class="cls-2" d="M1181.26,1683.52h119.23l151.62,337.7v-337.7h103.38v482.43h-113.03l-158.51-353.55v353.55h-102.69v-482.43Z"/>
    <path class="cls-2" d="M1625.76,1683.52h103.38v132.32c0,97.86,51.69,110.96,86.84,110.96s86.84-13.1,86.84-110.96v-132.32h103.38v127.5c0,122.68-51,184.7-135.77,201.93v153h-103.38v-150.93c-87.53-16.54-141.28-79.25-141.28-204v-127.5Z"/>
  </g>
  <g>
    <path class="cls-2" d="M100.67,2255.06h127.5l130.25,384.56,130.26-384.56h119.91v482.43h-102.69v-325.29l-113.02,325.29h-68.23l-120.61-345.28v345.28h-103.38v-482.43Z"/>
    <path class="cls-2" d="M678.18,2457.68c0-155.76,100.62-218.47,217.1-218.47s216.4,62.72,216.4,218.47v79.94c0,155.76-100.62,218.47-216.4,218.47s-217.1-62.72-217.1-218.47v-79.94ZM1004.16,2547.96v-100.62c0-90.29-57.89-113.03-108.89-113.03s-109.58,22.74-109.58,113.03v100.62c0,90.29,57.89,113.71,109.58,113.71s108.89-23.43,108.89-113.71Z"/>
    <path class="cls-2" d="M1181.26,2255.06h119.23l151.62,337.7v-337.7h103.38v482.43h-113.02l-158.51-353.55v353.55h-102.69v-482.43Z"/>
    <path class="cls-2" d="M1625.76,2255.06h103.38v132.32c0,97.86,51.68,110.96,86.84,110.96s86.84-13.1,86.84-110.96v-132.32h103.38v127.5c0,122.68-51,184.7-135.77,201.93v153h-103.38v-150.93c-87.52-16.54-141.28-79.25-141.28-204v-127.5Z"/>
  </g>
  <polygon class="cls-1" points="2005.84 965.08 1810.77 535.16 1806.13 523.19 1707.28 268.39 1756.96 155.74 1756.95 80.97 1371.34 82.2 1057.79 793.21 951.89 530.41 1117.13 155.74 1117.12 80.97 731.51 82.2 169.78 1355.97 100.67 1510.32 519.76 1510.32 749.39 989.6 853.53 1256.36 740.5 1510.32 1159.59 1510.32 1509.8 716.18 1624.8 956.86 1448.79 1355.97 1379.68 1510.32 1798.77 1510.32 2006.18 1039.99 2005.84 965.08"/>
</svg>